<svg id="SvgjsSvg1127" width="360" height="360" xmlns="http://www.w3.org/2000/svg" version="1.1" xmlns:xlink="http://www.w3.org/1999/xlink" xmlns:svgjs="http://svgjs.com/svgjs"><defs id="SvgjsDefs1128"></defs><g id="SvgjsG1129"><svg xmlns="http://www.w3.org/2000/svg" data-name="2" viewBox="0 0 3622.559 2789.987" width="360" height="360"><path fill="#efefef" d="M650.563 2338.935s-517.935-627.474-47.14-942.655c619.016-414.408 331.652-1143.445 1492.07-805.034S3515.762 1656.55 3102.108 2341.833Z" class="colorefefef svgShape"></path><path fill="#ffffff" stroke="#dddddd" stroke-miterlimit="10" stroke-width="7" d="M480.26 2344.833c-5.785-9.538-6.472-19.171 1.408-28.038 18.837-21.191 71.945 5.02 109.64 28.038ZM606.163 2344.833c-35.824-40.124-92.568-113.685-56.076-142.069 37.163-28.904 112.2 78.75 150.765 140.328-2.638-48.1 1.103-112.065 42.08-97.496 42.525 15.12 7.366 60.935-17.84 99.237Z" class="colorfff svgShape colorStrokeddd svgStroke"></path><path fill="none" stroke="#dddddd" stroke-linecap="round" stroke-miterlimit="10" stroke-width="7.045" d="M2945.663 951.898c43.917-7.519 85.595-22.147 113.542-54.412 24.578-28.374 32.102-72.82.966-99.555-10.206-8.763-23.178-13.15-36.153-14.743-25.993-3.192-53.576-2.214-76.432 12.943 13.105-10.817 26.112-22.12 31.635-39.414 5.072-15.88.867-34.344-9.433-46.751-12.12-14.599-31.13-21.159-49.316-20.437-29.146 1.157-56.459 18.351-79.612 36.018-.354-24.864-2.015-50.574-12.69-72.633-10.674-22.059-32.564-39.6-55.543-36.796-20.24 2.47-39.561 21.292-53.386 36.37-18.955 20.672-33.301 46.304-41.857 73.82 1.772-5.7-9.682-19.424-13.018-23.032a52.596 52.596 0 0 0-23.292-14.837c-17.09-5.107-34.859-5.714-48.017 7.077 0 0-29.505 28.6-32.136 81.226 0 0-69.226-17.077-103.684 68.407-52.003 129.018 247.805 123.134 308.01 122.187 60.347-.948 120.884-5.276 180.416-15.438Z" class="colorStrokeddd svgStroke"></path><path fill="#ffffff" stroke="#dddddd" stroke-miterlimit="10" stroke-width="7" d="M2449.889 831.928h-15.909V2353.28h34.456V831.928h-18.547z" class="colorfff svgShape colorStrokeddd svgStroke"></path><path fill="#ffffff" stroke="#dddddd" stroke-miterlimit="10" stroke-width="7" d="M2505.941 861.935h-109.735l-38.688-186.293h181.189l-32.766 186.293z" class="colorfff svgShape colorStrokeddd svgStroke"></path><path fill="#ffffff" stroke="#dddddd" stroke-miterlimit="10" stroke-width="7" d="m2535.668 661.607-13.614-20.42h-10.958c-1.453-16.602-24.965-30.081-55.083-32.113l-3.512-36.655a4.777 4.777 0 0 0-1.535-3.07 4.832 4.832 0 0 0-2.647-1.21 4.544 4.544 0 0 0-.568-.035 3.047 3.047 0 0 0-3.025 2.695l-4.46 38.265c-30.138 2.013-53.689 15.504-55.142 32.123h-10.227l-14.339 20.42h-12.829v17.868h200.767v-17.868ZM2381.533 696.679l30.571 143.532h76.173l25.907-143.532h-132.651zM840.795 1513.125a148.773 148.773 0 1 0 60.168 119.518 148.066 148.066 0 0 0-60.168-119.518ZM1216.436 1237.227a255.33 255.33 0 0 0-255.343-255.355c-141.029 0-255.356 114.327-255.356 255.355a255.318 255.318 0 0 0 255.356 255.343c141.03 0 255.343-114.328 255.343-255.343ZM1179.415 1509.72a91.539 91.539 0 1 0 37.02 73.538 91.101 91.101 0 0 0-37.02-73.538Z" class="colorfff svgShape colorStrokeddd svgStroke"></path><path fill="#ffffff" stroke="#dddddd" stroke-miterlimit="10" stroke-width="7" d="m1102.97 1569.333-116.68 85.363-5.483-151.227-.123-3.778-1.462-39.666 41.737-53.007a1.112 1.112 0 0 0 .012-1.404 1.196 1.196 0 0 0-1.732-.262l-42.58 33.502-8.343-70.101a4.552 4.552 0 0 0-.53-1.68 4.315 4.315 0 0 0-8.014 1.66l-14.074 118.263-42.834-33.695a1.172 1.172 0 0 0-1.645 1.646v.001l.013.02 37.594 47.77.427.548 3.9 4.995-.732 280.703-50.998-37.289-.02-.014.006-.007-111.136-81.28a2.189 2.189 0 0 0-3.158 2.926 2.577 2.577 0 0 0 .309.386l95.233 96.999 69.641 70.983-1.278 497.247h70.069l-23.52-648.169 117.23-119.361a1.387 1.387 0 0 0-1.829-2.072Z" class="colorfff svgShape colorStrokeddd svgStroke"></path><path fill="none" stroke="#dddddd" stroke-linecap="round" stroke-miterlimit="10" stroke-width="7" d="M1141.98 657.056c-15.273-13.806-35.895-13.151-55.731-7.639a61.775 61.775 0 0 0-27.035 16.016c-3.872 3.894-17.166 18.708-15.108 24.86a207.817 207.817 0 0 0-48.583-79.682c-16.045-16.274-38.47-36.591-61.962-39.257-26.67-3.026-52.077 15.908-64.467 39.718-12.39 23.81-14.318 51.562-14.728 78.4-26.873-19.07-58.574-37.63-92.402-38.878-21.109-.78-43.171 6.302-57.239 22.06-11.955 13.391-16.835 33.322-10.949 50.463 6.41 18.667 21.507 30.868 36.718 42.544-26.529-16.361-58.543-17.417-88.711-13.972-15.06 1.72-30.116 6.455-41.961 15.914-27.378 21.862-28.114 61.21-13.632 90.702 19.7 40.12 65.288 56.07 107.128 59.021 41.972 2.961 85.08-1.057 127.217-1.057h425.825" class="colorStrokeddd svgStroke"></path><path fill="#ffffff" stroke="#dddddd" stroke-miterlimit="10" stroke-width="7" d="M2723.088 1429.577a255.205 255.205 0 0 1 51.56-284.946 198.007 198.007 0 0 1-15.124-75.732c0-108.716 88.116-196.951 196.951-196.951a191.677 191.677 0 0 1 54.537 7.74c82.16 23.697 142.294 99.428 142.294 189.211a195.83 195.83 0 0 1-15.123 75.732 255.636 255.636 0 0 1 51.68 284.946 311.436 311.436 0 0 1 79.066 207.786c0 172.66-139.915 312.572-312.454 312.572a310.46 310.46 0 0 1-125.029-26.076c-110.384-48.106-187.543-158.252-187.543-286.496a310.94 310.94 0 0 1 79.185-207.786Z" class="colorfff svgShape colorStrokeddd svgStroke"></path><path fill="#ffffff" stroke="#dddddd" stroke-miterlimit="10" stroke-width="7" d="m2808.01 1484.547 130.898 95.764 6.152-169.655.137-4.238 1.641-44.5-46.824-59.466a1.247 1.247 0 0 1-.013-1.575 1.341 1.341 0 0 1 1.943-.294l47.769 37.585 9.36-78.644a5.103 5.103 0 0 1 .595-1.885c2.038-3.724 8.392-3.103 8.99 1.862l15.79 132.675 48.053-37.8a1.315 1.315 0 0 1 1.846 1.846l-.001.001c-.006.007-.009.015-.015.023l-42.174 53.59-.479.615-4.375 5.604.82 314.91 57.213-41.833.022-.017-.006-.007 124.678-91.184a2.455 2.455 0 0 1 3.543 3.281 2.879 2.879 0 0 1-.346.433l-106.838 108.82-78.128 79.633 1.434 557.841h-78.607l26.385-727.154-131.514-133.907a1.556 1.556 0 0 1 2.05-2.324Z" class="colorfff svgShape colorStrokeddd svgStroke"></path><path fill="none" stroke="#dddddd" stroke-linecap="round" stroke-miterlimit="10" stroke-width="7" d="M1159.914 515.159c-12.514-13.906-25.325-28.301-31.587-45.93-6.261-17.63-4.413-39.504 9.432-52.086 13.462-12.234 34.642-12.404 51.366-5.249 16.724 7.155 28.343 19.902 41.211 32.758-9.142-26.46-18.38-53.408-19.359-81.386-.979-27.98 7.521-57.658 28.703-75.963 26.404-22.819 67.787-22.558 97.997-5.089s50.12 49.129 60.578 82.423c10.457 33.294 14.413 70.92 16.4 105.762 8.565-16.066 17.403-32.487 30.973-44.625 13.57-12.139 33.064-19.322 50.324-13.528 13.592 4.563 23.735 16.436 29.544 29.545 5.808 13.108 5.07 25.847 7.08 40.043 33.152-39.102 92.338-53.544 139.776-34.107 47.437 19.438 79.472 71.258 75.656 122.38-1.83 24.5-13.167 50.448-35.614 60.434 30.445-8.286 64.48-3.043 94.216 7.507 29.737 10.55 55.368 36.074 59.785 67.316 8.045 56.887-47.383 96.092-96.095 107.27-28.434 6.526-57.845 7.022-86.988 8.347M2099.117 815.843c-8.99 3.317-18.963 2.8-28.368.966-29.078-5.668-58.267-15.556-81.097-35.078-36.904-31.556-49.896-99.033-8.19-132.335 13.261-10.59 30.118-15.892 46.98-17.817 33.776-3.857 69.62-2.676 99.32 15.642-17.03-13.072-33.931-26.732-41.109-47.632-6.59-19.19-1.127-41.505 12.26-56.5 15.749-17.642 40.45-25.57 64.084-24.697 37.874 1.398 73.366 22.177 103.454 43.528.46-30.048 2.617-61.119 16.49-87.777 13.87-26.659 42.316-47.856 72.176-44.468 26.302 2.984 51.41 25.731 69.374 43.952a232.674 232.674 0 0 1 54.393 89.212c-2.303-6.888 12.581-23.473 16.916-27.834a69.164 69.164 0 0 1 30.269-17.931c24.537-6.819 53.233-5.89 69.061 17.006 6.858 9.92 12.54 26.933 5.685 38.149" class="colorStrokeddd svgStroke"></path><path fill="#efefef" d="M360.348 1774.6a453.977 453.977 0 0 1-1.586-27.394c-.239-8.957.545-17.68 1.187-26.6 1.278-17.772 3.164-35.099 5.835-51.886a487.99 487.99 0 0 1 28.915-104.01c2.899-7.255 5.498-13.206 9.615-21.861q5.527-11.62 11.729-22.901a445.42 445.42 0 0 1 25.861-41.451q3.458-4.923 7.046-9.752c1.117-1.503 2.25-2.994 3.375-4.49.643-.853 1.28-1.71 1.926-2.563.467-.617 2.796-3.631.454-.622q7.378-9.48 15.234-18.575a456.064 456.064 0 0 1 33.895-35.172q9.965-9.29 20.474-17.971 5.252-4.338 10.633-8.518c-3.16 2.453 1.45-1.08 2.448-1.827q2.885-2.16 5.804-4.271c7.356-5.324 14.903-10.377 22.442-15.435 9.553-6.408 18.607-11.614 24.409-21.966a15.09 15.09 0 0 0-12.892-22.465c-11.162-.338-19.699 4.165-28.997 9.767-7.1 4.279-13.948 8.89-20.678 13.73a497.992 497.992 0 0 0-41.971 33.65 456.035 456.035 0 0 0-68.131 76.424 464.427 464.427 0 0 0-50.68 93.92c-14.206 35.21-23.09 71.71-27.87 109.336-5.317 41.86-2.488 83.696 3.568 125.334 1.47 10.11 18.85 7.825 17.955-2.43Z" class="colorefefef svgShape"></path><path fill="none" stroke="#dddddd" stroke-linecap="round" stroke-miterlimit="10" stroke-width="7" d="M1604.274 821.09s-77.178.832-105.627-2.829M2156.574 818.261s99.762 4.184 129.638 0" class="colorStrokeddd svgStroke"></path><path fill="##00AEEF" d="M598.402 796.158a22.512 22.512 0 0 0-2.485 13.283c.485 4.108 1.819 9.4 5.683 11.528 1.771.975 4.753-.208 4.467-2.564-.395-3.249-2.355-5.89-2.976-9.13a21.261 21.261 0 0 1 .966-10.733c1.102-3.302-4.056-5.514-5.655-2.384ZM612.112 795.018c-2.143 7.529-1.05 19.622 7.32 22.991 1.906.768 3.581-1.439 3.152-3.152-.74-2.954-2.702-5.495-3.74-8.36a21.182 21.182 0 0 1-1.067-9.917c.494-3.624-4.595-5.32-5.665-1.562ZM1305.445 316.72a92.422 92.422 0 0 1 12.866 11.6c3.183 3.506 6.096 9.731 10.494 11.644 1.79.778 3.832-.115 3.903-2.24.18-5.427-5.694-10.938-9.253-14.547a69.33 69.33 0 0 0-15.013-11.584c-3.406-1.952-5.972 2.888-2.997 5.127ZM1316.833 307.225c3.547 3.314 7.062 6.75 10.298 10.37 3.223 3.606 5.767 7.888 9.356 11.145 1.992 1.808 5.665.08 4.753-2.767-3.078-9.601-12.743-17.929-20.923-23.263-2.73-1.781-5.868 2.289-3.484 4.515ZM2006.705 662.678a91.943 91.943 0 0 0-12.42 16.047c-2.762 4.706-7.644 11.288-5.104 16.744a3.211 3.211 0 0 0 3.635 1.48c5.075-2.14 6.09-8.522 8.523-13.126a106.857 106.857 0 0 1 10.271-16.24c2.687-3.41-1.78-8.251-4.905-4.905ZM3024.827 823.471c8.187 6.74 8.041 19.144 13.793 27.41 1.965 2.824 7.522 2.2 7.163-1.94-.583-6.716-4.554-13.666-7.411-19.7-2.318-4.896-5.13-9.264-10.474-11.045-2.89-.964-5.517 3.261-3.071 5.275ZM3038.832 816.6a119.663 119.663 0 0 1 11.418 15.76c2.656 4.396 4.514 11.683 9.077 14.272a2.971 2.971 0 0 0 4.315-1.755c1.57-5.729-3.806-12.744-6.866-17.277a72.944 72.944 0 0 0-13.745-15.199 2.97 2.97 0 0 0-4.199 4.199ZM640.801 1572.536a59.536 59.536 0 0 0-9.362 16.196c-1.982 5.327-4.32 12.628-2.288 18.22.65 1.783 3.33 2.514 4.341.567 2.411-4.641 2.565-10.323 4.215-15.294a60.722 60.722 0 0 1 8.1-15.826c2.063-2.926-2.758-6.711-5.006-3.863ZM655.427 1579.547c-5.907 2.051-7.033 9.478-8.26 14.833-1.461 6.375-3.928 15.148-1.201 21.35.912 2.076 3.938 1.662 4.965 0 2.824-4.574 2.445-11.339 3.39-16.565a66.1 66.1 0 0 1 4.282-15.486c.895-2.02-.618-5.02-3.176-4.132ZM1101.187 1094.49c6.565 4.122 11.35 9.987 15.274 16.602 1.822 3.072 3.448 6.254 4.984 9.479 1.46 3.064 2.397 6.426 5.493 8.142a2.997 2.997 0 0 0 4.361-1.774c.778-3.813-1.314-7.017-3.018-10.365a108.855 108.855 0 0 0-6.462-11.25 52.535 52.535 0 0 0-17.194-16.716c-3.812-2.203-7.145 3.555-3.438 5.882ZM1115.115 1083.806a51.147 51.147 0 0 1 11.663 13.235c3.006 4.641 5.169 11.056 9.853 14.188 2.362 1.58 4.866-.587 5.125-2.942.771-6.999-6.36-15.105-10.464-20.17-3.63-4.478-9.229-11.545-15.69-8.09-1.24.663-1.707 2.835-.487 3.78ZM1158.612 1545.632c1.058 6.125 4.424 12.102 6.668 17.877 1.94 4.99 2.891 12.386 7.063 15.957 1.886 1.614 5.146 1.177 5.797-1.531 1.392-5.785-2.661-12.525-4.899-17.782-2.512-5.902-5.215-12.735-9.772-17.348-2.187-2.214-5.325.12-4.857 2.827ZM1173.773 1536.63a98.236 98.236 0 0 1 10.92 17.407c2.697 5.325 3.863 12.43 7.672 17 1.347 1.616 4.33.738 4.753-1.255 1.355-6.4-2.678-14.167-5.518-19.782a69.22 69.22 0 0 0-13.452-17.744c-2.899-2.863-6.82 1.34-4.375 4.375ZM3029.927 954.082a150.259 150.259 0 0 1 18.234 16.653c2.739 2.942 5.267 6.019 7.818 9.122 2.118 2.574 3.808 5.513 7.515 5.127a3.054 3.054 0 0 0 2.618-1.502c2.981-6.741-7.1-14.927-11.46-19.239a117.838 117.838 0 0 0-21.066-16.422c-4.091-2.527-7.235 3.507-3.66 6.26ZM3043.92 939.297a89.476 89.476 0 0 1 16.745 14.144 98.166 98.166 0 0 1 6.627 7.986c1.896 2.524 3.305 5.456 6.652 6a2.947 2.947 0 0 0 3.537-2.007c1.679-6.22-7.011-13.776-11.034-17.76a93.682 93.682 0 0 0-19.056-14.3c-3.854-2.233-7.164 3.538-3.47 5.937ZM2744.572 1356.383a91.538 91.538 0 0 0 3.7 26.126 86.388 86.388 0 0 0 4.394 11.612c1.674 3.62 3.23 7.809 6.875 9.766a2.747 2.747 0 0 0 4.091-2.348c-.038-3.615-2.19-6.431-3.734-9.61a91.074 91.074 0 0 1-4.592-11.359 90.116 90.116 0 0 1-4.36-24.187c-.18-4.079-6.377-4.126-6.374 0ZM2759.027 1357.188a50.786 50.786 0 0 0 2.581 23c2.361 6.4 5.807 13.986 12.422 16.767 2.406 1.01 4.468-1.84 3.96-3.96-1.421-5.924-6.11-10.9-8.156-16.714a48.264 48.264 0 0 1-2.682-19.093c.314-5.295-7.573-5.094-8.125 0ZM1996.844 655.563a42.242 42.242 0 0 0-14.268 12.246c-3.071 4.183-7.922 11.695-5.791 17.027.967 2.42 3.638 3.322 5.693 1.503 3.45-3.054 4.224-9.043 6.737-12.957a35.334 35.334 0 0 1 11.509-11.181c4.232-2.58.486-8.97-3.88-6.638Z" class="colorddd svgShape"></path><path fill="#ffffff" d="M1042.13 2354.17c-68.464 0-132.469-29.622-175.601-81.27-27.182-32.55-40.019-66.497-38.155-100.9 2.35-43.366 28.228-87.288 76.916-130.544 40.77-36.221 93.542-53.829 161.33-53.829 61.994 0 128.358 14.337 192.536 28.203 60.261 13.019 117.18 25.315 167.079 25.313 93.008-.006 141.697-44.538 157.87-144.39 13.74-84.826 9.554-155.156 3.623-199.22-6.427-47.752-16.231-75.802-16.33-76.08l3.636-1.636c97.053 175.42 214.626 257.12 370.01 257.115 102.247-.004 210.847-35.165 315.872-69.168 105.41-34.127 214.408-69.417 317.453-69.417 84.538 0 156.96 23.615 221.402 72.195 84.224 63.492 137.07 130.536 157.068 199.27 16.217 55.737 11.02 112.77-15.449 169.516a301.052 301.052 0 0 1-112.709 127.602 307.004 307.004 0 0 1-163.875 47.24Z" class="colorfff svgShape"></path><path d="M1573.284 1620.785c109.722 198.318 236.936 258.146 371.76 258.146 205.184 0 427.925-138.584 633.325-138.584 76.386 0 150.414 19.186 220.198 71.792 183.228 138.125 186.707 268.377 141.01 366.343-49.645 106.43-157.331 173.688-274.77 173.688H1042.13c-67.033 0-131.1-29.101-174.067-80.553-45.755-54.789-67.611-134.345 38.554-228.666 45.022-39.998 100.376-53.331 160.002-53.324 119.402.014 255.774 53.515 359.615 53.515 80.436 0 141.388-32.117 159.845-146.07 26.693-164.802-12.796-276.287-12.796-276.287m3.5-1.936-7.258 3.266-.013.005c.12.341 9.865 28.285 16.252 75.819 5.898 43.902 10.056 113.976-3.634 198.493-15.985 98.697-64.066 142.71-155.896 142.71-49.689 0-106.511-12.273-166.67-25.267-64.277-13.884-130.741-28.24-192.944-28.248-32.6 0-60.94 3.874-86.683 11.845a204.509 204.509 0 0 0-75.976 42.488c-49.102 43.624-75.206 88.013-77.586 131.932-1.891 34.925 11.101 69.34 38.617 102.29a225.432 225.432 0 0 0 79.407 60.639 235.247 235.247 0 0 0 97.73 21.349h1622.676a309 309 0 0 0 164.94-47.548 303.05 303.05 0 0 0 113.456-128.449c26.68-57.197 31.915-114.703 15.558-170.92-9.602-33-26.848-65.908-51.258-97.808-26.632-34.804-62.473-69.29-106.527-102.5-64.802-48.851-137.617-72.598-222.606-72.598-46.408 0-98.009 7.124-157.75 21.78-53.128 13.032-107.616 30.673-160.31 47.734-104.88 33.957-213.331 69.07-315.265 69.07-154.582 0-271.6-81.372-368.26-256.082Z" fill="#000000" class="color000 svgShape"></path><path d="M3215.21 2345.15c-355.972-4.891-711.862-.193-1067.84-.125q-531.2.101-1062.39-1.215c-199.743-.514-399.575-.857-599.298 2.23-7.177.11-7.19 11.045 0 11.156 355.896 5.5 711.92 1.192 1067.84 1.026q264.235-.124 528.47-.023c177.98.034 355.947 2.446 533.92 2.47 199.79.026 399.526.162 599.297-2.582 8.324-.114 8.338-12.823 0-12.938Z" fill="#000000" class="color000 svgShape"></path><path fill="#00AEEF" stroke="#000000" stroke-miterlimit="10" stroke-width="4" d="M1277.75 1196.6s-55.095-4.475-74.465 86.515 37.44 100.043 37.44 100.043 69.762-70.658 154.971-42.368c0 0 30.898-57.035-6.382-100.71s-111.564-43.48-111.564-43.48ZM1506.813 1110.876s38.621-39.547 112.969 16.37 37.44 100.044 37.44 100.044-99.01-7.497-144.711 69.784c0 0-60.752-22.737-61.305-80.156s55.607-106.042 55.607-106.042Z" class="colorfe6d3e svgShape colorStroke000 svgStroke"></path><path fill="#ffffff" stroke="#000000" stroke-miterlimit="10" stroke-width="4" d="M1451.772 871.948c58.641 157.925 65.757 316.743 60.822 425.2a288.756 288.756 0 0 1-116.898 43.642c-74.886-78.532-173.681-202.896-233.12-360.352-42.093-111.457-64.476-239.519-44.709-379.648a774.341 774.341 0 0 1 24.85-113.307l.484-.181a773.34 773.34 0 0 1 102.853 77.742c101.206 90.9 165.55 198.695 205.718 306.904Z" class="colorfff svgShape colorStroke000 svgStroke"></path><path fill="#ffffff" stroke="#000000" stroke-miterlimit="10" stroke-width="4" d="M1451.772 871.948c58.641 157.925 65.757 316.743 60.822 425.2a288.756 288.756 0 0 1-116.898 43.642c-74.886-78.532-173.681-202.896-233.12-360.352 56.182 24.544 119.983 34.486 176.851 6.647 37.93-18.568 73.506-47.51 96.48-83.154 6.322-9.809 12.625-20.661 15.865-31.983Z" class="colorfff svgShape colorStroke000 svgStroke"></path><circle cx="1258.262" cy="795.497" r="70.385" fill="#ffffff" stroke="#000000" stroke-miterlimit="10" stroke-width="4" transform="rotate(-85.882 1258.262 795.497)" class="colorfff svgShape colorStroke000 svgStroke"></circle><path fill="#00AEEF" d="M1312.04 775.366a57.43 57.43 0 0 1-25.394 70.052c-.011.005-.018.02-.03.025a57.425 57.425 0 0 1-78.338-78.201l-.004-.012a57.424 57.424 0 0 1 103.766 8.136Z" class="colorfe6d3e svgShape"></path><path fill="#090909" stroke="#000000" stroke-miterlimit="10" d="M1312.04 775.366a57.43 57.43 0 0 1-25.393 70.052c18.138-10.276 21.815-34.844 18.83-53.668-5.109-32.21-39.626-48.007-69.456-40.68-8.866 2.179-22.941 7.64-27.747 16.16a57.424 57.424 0 0 1 103.766 8.136ZM1246.054 565.044c-41.773 38.085-89.396 42.17-128.187 35.746a774.341 774.341 0 0 1 24.85-113.307l.484-.181a773.34 773.34 0 0 1 102.853 77.742Z" class="color090909 svgShape colorStroke000 svgStroke"></path><path d="M1291.471 1023.418a160.233 160.233 0 0 0 51.77-12.444 152.925 152.925 0 0 0 23.46-12.48c6.474-4.217 16.057-9.518 19.615-16.614.692-1.38-.489-3.555-2.223-2.892-3.534 1.351-6.149 3.837-9.065 6.176a146.686 146.686 0 0 1-11.325 8.202 161.953 161.953 0 0 1-21.5 11.878 153.162 153.162 0 0 1-50.732 13.205c-3.154.265-3.207 5.194 0 4.969ZM1397.015 971.259a153.642 153.642 0 0 0 11.965-11.944c2.84-3.257 6.937-6.999 7.494-11.401.203-1.61-1.743-2.174-2.892-1.66-3.968 1.778-6.714 7.18-9.389 10.546-3.191 4.016-6.442 7.946-9.896 11.74a1.923 1.923 0 0 0 2.718 2.719ZM1135.69 620.099c10.222.305 20.462.617 30.683.108 6.677-.332 17.764.458 22.276-5.45a2.307 2.307 0 0 0-1.983-3.456c-3.632.412-7.084 1.704-10.75 2.17-4.435.564-8.905.893-13.37 1.105-8.946.425-17.906.3-26.857.179-3.444-.047-3.434 5.24 0 5.344ZM1438.237 1386.426l16.665 47.708c2.724 7.797 5.399 15.612 8.244 23.366 2.7 7.358 4.719 16.245 9.333 22.664 1.245 1.733 4.492 1.344 4.367-1.182-.39-7.926-4.214-15.947-6.702-23.412-2.61-7.832-5.393-15.607-8.126-23.398l-16.73-47.69c-1.547-4.41-8.609-2.517-7.05 1.944ZM1469.163 1397.177q15.843 40.5 30.688 81.393c4.923 13.466 9.377 27.139 14.544 40.51 5.158 13.347 9.22 27.11 14.91 40.242 1.397 3.221 6.235.86 5.484-2.312-3.295-13.927-8.451-27.41-12.817-41.032-4.37-13.643-9.591-27.07-14.566-40.502-9.979-26.94-20.638-53.594-31.734-80.093-1.64-3.916-8.109-2.296-6.509 1.794ZM1502.23 1389.79c7.401 18.308 13.878 37.478 22.822 55.083 1.373 2.703 5.76.827 4.884-2.059-5.657-18.632-14.143-36.689-21.378-54.768-1.552-3.877-7.912-2.171-6.328 1.745ZM1508.545 1333.54q49.012 101.996 96.577 204.66c4.565 9.796 9.08 19.616 13.707 29.384 4.582 9.674 8.708 19.875 14.418 28.95a2.025 2.025 0 0 0 3.684-1.554c-2.518-9.065-6.656-17.771-10.305-26.425q-5.34-12.662-10.87-25.237c-7.66-17.434-15.288-34.868-23.299-52.144q-24.002-51.76-48.875-103.111c-9.43-19.47-19.168-38.785-28.966-58.072-2.06-4.057-8.015-.497-6.07 3.549Z" fill="#000000" class="color000 svgShape"></path><path fill="#00AEEF" d="M1757.936 2469.958c-9.625 1.854-20.918 5.3-23.678 14.706-2.297 7.827 3.066 16.262 10.205 20.209s15.602 4.479 23.747 4.924l83.462 4.561c86.119 4.706 172.344 11.853 258.658 8.796 23.452-.83 248.63-25.753 232.354-56.756-1.48-2.819-4.475-4.453-7.325-5.874-107.99-53.829-226.652-18.241-340.234-10.233-33.05 2.33-65.674-.832-98.726 1.506a1168.089 1168.089 0 0 0-138.463 18.16Z" class="colorddd svgShape"></path><path fill="#ffffff" stroke="#000000" stroke-miterlimit="10" stroke-width="4" d="M2190.316 1271.926c-4.49 19.54-67.86 21.62-104.45 19.95-36.59-1.66-53.64-58.21-46.99-71.1 2.55-4.94 7.18-7.93 11.92-9.74a46.833 46.833 0 0 1 15.53-2.77c2.83-4.37 2.69-23.75 1.93-41.24-.7-15.91-1.93-30.24-1.93-30.24l103.12-6.65s.14 19.65.6 39.11c.33 13.8.82 27.52 1.54 34.07.9 8.24 5.96 10.94 10.59 11.63a22.274 22.274 0 0 0 8.14-.41s4.49 37.84 0 57.39Z" class="colorfff svgShape colorStroke000 svgStroke"></path><path fill="#090909" stroke="#000000" stroke-miterlimit="10" d="M2170.046 1169.246c-31.73 17.32-85.55 2.8-101.79-2.22-.7-15.91-1.93-30.24-1.93-30.24l103.12-6.65s.14 19.65.6 39.11Z" class="color090909 svgShape colorStroke000 svgStroke"></path><path fill="#ffffff" stroke="#000000" stroke-miterlimit="10" stroke-width="4" d="M2202.705 1104.353s-10.142 35.344-55.59 52.807c-28.641 11.005-76.397 6.708-87.5-7.262-12.1-15.226-22.978-46.276-22.148-72.572 2.244-71.102 64.199-143.451 80.83-143.036s81.498 43.66 93.556 66.945-1.663 51.143-1.663 51.143 30.353-7.068 28.274 19.543-25.364 40.749-35.759 32.432Z" class="colorfff svgShape colorStroke000 svgStroke"></path><path fill="#00AEEF" stroke="#000000" stroke-miterlimit="10" stroke-width="4" d="M1887.396 1310.54s-10.863.498-12.787 26.413-19.864 212.442-19.864 212.442 50.334 13.316 58.807-2.134 15.947-174.426 1.993-198.846-28.15-37.876-28.15-37.876Z" class="colorc63914 svgShape colorStroke000 svgStroke"></path><path fill="#ffffff" stroke="#1f2223" stroke-miterlimit="10" stroke-width="4" d="M2296.996 2389.036c0 14.61-5.09 32.39-33.67 63.21-28.58 30.82-65.42 47.31-78.13 34.61-6.96-6.97 1.16-21 12.01-35.19 8.94-11.69 19.73-23.48 25.47-31.51 4.87-6.82 9.37-15.79 13.06-24.25 5.94-13.61 9.81-25.93 9.81-25.93s26.04-20.33 33.03-21.6c4.35-.79 10.43 9.52 14.39 20.94a82.444 82.444 0 0 1 3.18 11.68 44.94 44.94 0 0 1 .85 8.04Z" class="colorfff svgShape colorStroke231f20 svgStroke"></path><path fill="#ffffff" stroke="#1f2223" stroke-miterlimit="10" stroke-width="4" d="M2296.996 2389.036c0 14.61-5.09 32.39-33.67 63.21-28.58 30.82-65.42 47.31-78.13 34.61-6.96-6.97 1.16-21 12.01-35.19 7.73 7.99 21.48 17.69 38.81 11.05 22.23-8.52 50.41-62.08 60.13-81.72a44.94 44.94 0 0 1 .85 8.04ZM1881.575 2389.254l-5.716 29.854h33.665l6.987-38.112-34.936 8.258z" class="colorfff svgShape colorStroke231f20 svgStroke"></path><path fill="#ffffff" stroke="#1f2223" stroke-miterlimit="10" stroke-width="4" d="M1916.516 2464.845c.63 13.34-14.61 15.24-14.61 15.24s-104.81-.63-116.24 0c-11.44.64-28.59-1.27-24.14-16.51 1.93-6.63 14.79-11.94 30.59-17.23 20.54-6.88 46.04-13.74 58.97-23.43 22.87-17.15 26.46-12.62 26.46-12.62 13.12 5.8 18.64.56 33.69-.54 15.06-1.1 4.64 41.75 5.28 55.09Z" class="colorfff svgShape colorStroke231f20 svgStroke"></path><path fill="#ffffff" stroke="#1f2223" stroke-miterlimit="10" stroke-width="4" d="M1901.906 2480.085s-104.81-.63-116.24 0c-11.44.64-28.59-1.27-24.14-16.51 1.93-6.63 14.79-11.94 30.59-17.23a26.611 26.611 0 0 1 6.88 10.87c6.36 18.42 117.52 7.63 117.52 7.63.63 13.34-14.61 15.24-14.61 15.24Z" class="colorfff svgShape colorStroke231f20 svgStroke"></path><path fill="#090909" stroke="#1f2223" stroke-miterlimit="10" d="M2297.876 2355.826c-5.51 12.38-51.59 28.89-61.23 28.89-9.63 0-8.94-5.5-27.51-83.92s-48.84-145.84-77.05-279.98c-28.2-134.14-66.72-184.36-74.29-191.92l-.02-.02c-7.66-7.18-73.58 209.18-72.21 253.16 1.38 44.03-18.57 148.59-29.58 193.3-11 44.72-28.89 96.31-29.58 111.44-.38 8.42-15.65 10.75-29.52 8.78-11.07-1.56-21.25-5.86-22.28-11.97-2.3-13.77 0-28.79 0-28.79s-3.95-281.65-11.23-336.73c-5.7-43.17 12.3-214.79 20.34-286.96 2.22-19.9 3.68-32.24 3.68-32.24s368.52-33 378.15 26.15c1.99 12.21 2.66 32.49 2.53 57.27-.47 95.31-12.67 257.01-6.66 280.49 7.57 29.58 27.52 259.34 30.27 261.4 2.75 2.07 11.69 19.27 6.19 31.65Z" class="color090909 svgShape colorStroke231f20 svgStroke"></path><path fill="#ffffff" d="M2059.12 1681.91q-3.143 22.462-4.934 45.06c-1.238 15.486-2.75 31.253-1.821 46.789a1.231 1.231 0 0 0 2.46 0c1.682-15.195 1.74-30.568 2.864-45.815 1.124-15.238 2.638-30.456 4.384-45.635.192-1.667-2.719-2.078-2.954-.4ZM2232.861 1682.319q-1.646 39.51-3.094 79.01c-1.017 26.334-1.658 52.676-2.4 79.013l-.518 19.755-.337 19.759c-.152 13.172-.266 26.352.077 39.522l.18 9.879q.162 4.937.405 9.871l.458 9.869c.173 3.288.469 6.567.697 9.851l.733 9.848 1.013 9.83 1.022 9.828 1.11 9.82c6.04 52.361 12.625 104.663 19.065 156.982 6.332 52.333 12.655 104.67 18.557 157.064l-.298.04c-7.79-52.15-14.802-104.406-21.434-156.712q-4.908-39.237-9.311-78.537-4.5-39.288-8.213-78.668l-.935-9.843-.849-9.853-.843-9.852-.67-9.872c-.206-3.291-.482-6.58-.633-9.873l-.394-9.882-.431-9.88-.267-9.886-.267-9.886c-.1-3.295-.079-6.591-.15-9.887-.09-6.591-.293-13.184-.293-19.777l-.09-19.78.119-19.778c.312-26.372 1.396-52.724 2.598-79.062 1.315-26.335 2.9-52.655 5.094-78.932ZM1877.665 2365.394c9.04 3.568 20.1 6.908 29.91 5.34a.866.866 0 0 0 0-1.658c-4.896-.968-9.9-1.004-14.818-1.926a95.766 95.766 0 0 1-14.49-3.941c-1.39-.495-1.933 1.66-.602 2.185ZM2244.127 2353.318a215.872 215.872 0 0 0 24.63-8.464c6.863-2.861 14.999-5.76 20.8-10.48 1.163-.946-.09-2.92-1.444-2.481-7.104 2.299-13.832 6.772-20.682 9.812q-11.74 5.211-23.937 9.316a1.192 1.192 0 0 0 .633 2.297Z" class="colorfff svgShape"></path><path fill="#00AEEF" stroke="#000000" stroke-miterlimit="10" stroke-width="4" d="M2350.736 1357.996a6.86 6.86 0 0 1-1.47 3.25c-3.58 4.16-11.66.99-11.66.99s-17.01 57.14-29.66 101.9c-4.85 17.13-9.05 32.44-11.42 42.03-.65 2.62-1.16 4.81-1.51 6.5-2.02 9.75-5.59 46.29-9 87.46-5.04 60.75-9.71 131.57-8.47 141.24 2.08 16.21-96.05-8.32-194.59-15.39-98.55-7.07-194.18-9.56-206.1-4.57-6.41 2.68 2.07-76.94 10.83-158.05 7.56-69.89 15.33-140.89 13.98-161.29-2.91-44.07-13.31-83.16-20.79-95.22-7.49-12.06 114.34-82.33 143.45-94.8 29.11-12.47 42.83-5.41 42.83-5.41-2.08 7.49-18.71 1.67-19.13 13.73-.41 12.05 24.53 38.25 74.01 37 49.48-1.25 62.37-37 68.28-42.83 5.91-5.82 56.46 24.12 99.71 64.45q11.265 10.515 20.36 20.02c28.9 30.08 41.72 51.77 40.35 58.99Z" class="colorfe6d3e svgShape colorStroke000 svgStroke"></path><path fill="#00AEEF" d="M2349.266 1361.246c-3.58 4.16-11.66.99-11.66.99s-17.01 57.14-29.66 101.9c-4.85 17.13-9.05 32.44-11.42 42.03-54.26 38.2-129.51 85.03-174.82 87.04-76.98 3.42-198.02-29.59-205.47-55.65 0 0 61.79-8.34 90.52-1.69 28.73 6.65 98.02 15.89 119.79-11.17 21.78-27.05 19.68-151.77 143.13-180.81 41.92-9.86 66.03.02 79.59 17.36Z" class="colorc63914 svgShape"></path><path fill="#090909" stroke="#000000" stroke-miterlimit="10" d="M2307.946 1464.136c-6.17 21.79-11.29 40.64-12.93 48.53-2.02 9.75-5.59 46.29-9 87.46-31.88 28.55-82.1 53.32-137.53 46.17-85.59-11.04-175.63-27.27-175.63-27.27s61.05-37.62 150.78-30.25c89.74 7.38 127.71-84.68 158.08-122.58 10.19-12.71 19.21-11.16 26.23-2.06ZM1850.446 1527.825c3.8-.498 125.401 16.065 125.401 16.065l-20.433 53.127-117.903-22.346Z" class="color090909 svgShape colorStroke000 svgStroke"></path><path fill="#ffffff" stroke="#000000" stroke-miterlimit="10" stroke-width="4" d="M2060.357 1567.818s-23.563-15.238-32.918-28.544-33.057-32.225-38.254-35.551-39.917-13.306-38.878-5.613 20.79 33.157 29.73 39.448c0 0-33.888 3.795-40.956 8.577s-64.45 27.235-62.163 33.888 7.069 11.226 12.266 10.603c0 0 2.08 8.94 7.9 11.85a17.287 17.287 0 0 0 7.901 8.94s5.197 6.653 12.474 8.732 23.909-1.664 31.601-.832 56.965-7.277 70.063-8.732 35.135 2.287 35.135 2.287 16.84-28.482 14.345-35.551a16.6 16.6 0 0 0-8.246-9.502Z" class="colorfff svgShape colorStroke000 svgStroke"></path><path fill="#ffffff" stroke="#000000" stroke-miterlimit="10" stroke-width="3" d="M1841.991 1541.769s-8.316-11.227-2.287-18.711 25.78-4.99 23.493 9.355-19.398 12.31-21.206 9.356Z" class="colorfff svgShape colorStroke000 svgStroke"></path><path fill="#ffffff" stroke="#000000" stroke-miterlimit="10" stroke-width="3" d="M1860.494 1543.89s-9.98-10.853-19.335-7.319-32.432 17.048-18.503 29.73c0 0-2.703 8.316 9.98 13.098 0 0-2.08 9.98 8.523 11.227s15.8-1.871 15.8-1.871-2.127 6.444 6.421 8.108 15.617-10.603 9.796-15.385c0 0 2.495-10.187-8.94-12.266 0 0 5.406-11.435-4.573-15.593 0 0 5.912-5.447.831-9.729Z" class="colorfff svgShape colorStroke000 svgStroke"></path><path fill="#090909" stroke="#000000" stroke-miterlimit="10" d="M2242.506 1031.176c-.57 19.22-8.61 25.36-8.61 25.36s-17.05-9.15-29.94 3.74-24.54 20.79-22.04 7.07c2.49-13.72-49.48-4.57-54.47-49.48-4.16-37.43-.95-64.96-22.29-61.11a26.536 26.536 0 0 0-15.55 9.1 27.795 27.795 0 0 0-4.56 7.5c-7.69 18.73-24.15 56.46-32.88 58.65-4.57 1.15-9.52-.29-13.39-4.23-5.97-6.05-9.4-18.04-5.03-35.69 6.89-27.84 45.22-55.29 54.74-48.53a4.017 4.017 0 0 1 1.12 1.13s21.21-32.02 64.03-25.36c42.83 6.65 73.81 38.66 84.93 81.91 3.19 12.39 4.17 22.22 3.94 29.94Z" class="color090909 svgShape colorStroke000 svgStroke"></path><path fill="#1f2223" d="M1890.114 1590.114c7.32-1.682 14.403-5.762 21.092-9.064 6.395-3.157 15.066-5.845 20.015-11.087.944-1 .362-3.183-1.243-3-7.176.815-14.222 5.843-20.587 9.049-6.935 3.492-14.642 6.77-20.622 11.791-1.124.944.102 2.597 1.345 2.311ZM1897.83 1602.525c6.968-1.882 13.672-4.867 20.307-7.688 7.074-3.007 14.37-5.916 21.06-9.72 2.056-1.169.65-4.896-1.661-3.941-6.71 2.775-13.153 6.219-19.749 9.256-6.976 3.213-14.226 6.01-20.987 9.65a1.342 1.342 0 0 0 1.03 2.443ZM1905.002 1612.907a61.37 61.37 0 0 0 15.407-3.479c5.74-1.891 11.976-3.446 17.311-6.306 2.092-1.121.584-4.047-1.535-3.641-10.918 2.089-20.65 8.736-31.514 10.986a1.248 1.248 0 0 0 .33 2.44ZM1941.56 1620.519c6.482-1.294 13.285-3.321 19.018-6.702 2.074-1.223.704-4.943-1.698-4.026-6.123 2.336-12.065 5.267-18.143 7.744a1.548 1.548 0 0 0 .823 2.984Z" class="color231f20 svgShape"></path><path fill="#00AEEF" d="M2130.23 1629.9c-10.12 0-19.035-.39-27.258-1.193-6.476-.625-48.608-7.443-61.572-13.583l-2.935-1.39 2.562-1.995c7.123-5.548 11.222-10.517 13.707-16.617.153-.358.282-.692.412-1.034a65.942 65.942 0 0 0 3.695-18.02 25.052 25.052 0 0 0-.127-3.886c-.032-.385-.065-.771-.093-1.161-.008-.065-.038-.234-.073-.439-.34-2.016-.494-3.2.324-4.106 2.091-2.32 4.898-3.647 7.593-4.807a157.368 157.368 0 0 1 58.73-12.762c4.285-.093 11.99-.82 14.99-1.115 1.164-3.234 4.355-12.36 5.001-16.87a604.1 604.1 0 0 1 1.726-11.268c1.373-8.382 2.834-15.869 4.466-22.89 3.866-16.667 8.781-30.907 15.025-43.534a242.06 242.06 0 0 1 31.706-48.345c15.148-17.957 31.756-31.767 48.03-39.936 17.065-8.56 35.406-13.084 53.042-13.084a90.562 90.562 0 0 1 39.285 8.566l1.005.479.123 1.107c4.514 40.84-11.478 92.368-25.687 128.403q-1.7 4.314-3.388 8.622c-8.29 21.142-16.864 43.004-27.451 63.753-11.039 21.604-26.294 38.063-45.342 48.919-17.537 10.003-38.99 15.636-63.76 16.74q-3.526.156-7.077.322c-12.002.552-24.412 1.123-36.66 1.123Z" class="colorfe6d3e svgShape"></path><path d="M2299.18 1353.865a88.852 88.852 0 0 1 38.426 8.371c4.42 39.99-10.8 90.02-25.56 127.45-9.63 24.43-18.81 48.78-30.76 72.2-11.22 21.96-26.25 37.66-44.55 48.09-17.97 10.25-39.09 15.42-62.86 16.48-14.342.635-29.053 1.443-43.647 1.443-9.106 0-18.165-.314-27.063-1.183-6.22-.6-48.39-7.47-60.91-13.4 6.24-4.86 11.34-10.1 14.33-17.44.15-.35.29-.71.43-1.08a67.902 67.902 0 0 0 3.82-18.59 36.461 36.461 0 0 0-.22-5.33c-.03-.41-.54-2.75-.26-3.06 1.83-2.03 4.39-3.23 6.9-4.31a155.367 155.367 0 0 1 57.98-12.6c5.52-.12 16.4-1.25 16.4-1.25s4.7-12.66 5.53-18.45q.81-5.625 1.72-11.23c1.25-7.63 2.69-15.23 4.44-22.76 3.44-14.83 8.11-29.43 14.87-43.1a241.213 241.213 0 0 1 31.44-47.94c13.86-16.43 30.07-30.74 47.4-39.44 16.186-8.118 34.283-12.87 52.144-12.871m.006-4v4l-.002-4c-17.95.001-36.602 4.599-53.941 13.296-16.515 8.29-33.342 22.273-48.664 40.436a244.085 244.085 0 0 0-31.97 48.748c-6.312 12.765-11.278 27.148-15.18 43.967-1.641 7.064-3.11 14.593-4.49 23.018a608.91 608.91 0 0 0-1.732 11.306c-.52 3.627-2.933 10.921-4.476 15.288-3.503.335-9.868.903-13.582.983a159.363 159.363 0 0 0-59.477 12.926c-2.896 1.247-5.924 2.684-8.287 5.305-1.504 1.666-1.167 3.663-.809 5.778.023.136.044.254.057.344.027.364.058.727.088 1.089a23.255 23.255 0 0 1 .125 3.57 63.956 63.956 0 0 1-3.583 17.492c-.107.284-.225.59-.353.889l-.015.033-.014.034c-2.343 5.753-6.256 10.476-13.083 15.794l-5.124 3.99 5.87 2.78c13.165 6.236 55.705 13.137 62.238 13.767 8.283.808 17.263 1.201 27.447 1.201 12.294 0 24.727-.572 36.751-1.125q3.55-.164 7.073-.322c25.092-1.119 46.848-6.839 64.665-17.001 19.391-11.052 34.912-27.789 46.13-49.745 10.633-20.838 19.224-42.745 27.533-63.932q1.689-4.307 3.386-8.62c14.293-36.246 30.374-88.11 25.815-129.357l-.245-2.214-2.01-.958a92.532 92.532 0 0 0-40.14-8.76Z" fill="#000000" class="color000 svgShape"></path><path fill="#00AEEF" d="M2141.637 1549.652s12.182 0 30.144 9.291.413-12.388-8.465-17.343a32.409 32.409 0 0 0-17.682-3.96Z" class="colorc63914 svgShape"></path><path fill="#00AEEF" d="M2312.046 1489.686c-9.63 24.43-18.81 48.78-30.76 72.2-11.22 21.96-26.25 37.66-44.55 48.09-17.97 10.25-39.09 15.42-62.86 16.48-23.29 1.03-47.55 2.52-70.71.26-6.22-.6-48.39-7.47-60.91-13.4 6.24-4.86 11.34-10.1 14.33-17.44 21.38 3.7 80.21 11.75 139.75 1.14 74.65-13.3 147.64-218.95 105.61-230.01-42.02-11.06-102.31 39.17-102.31 39.17 13.86-16.43 30.07-30.74 47.4-39.44 28.17-14.13 62.11-18.06 90.57-4.5 4.42 39.99-10.8 90.02-25.56 127.45Z" class="colorc63914 svgShape"></path><path fill="#1f2223" d="M2143.89 1536.809a.05.05 0 0 0 0-.1.05.05 0 0 0 0 .1ZM1963.001 1604.924a16.977 16.977 0 0 1 1.139 2.169c-.151-.36.2.629.235.732a5.532 5.532 0 0 0 .715 1.516 2.872 2.872 0 0 0 5.303-1.436c.14-2.267-1.636-4.714-3.195-6.219-2.15-2.074-5.798.586-4.197 3.238ZM1954.571 1590.77a3.698 3.698 0 0 0 .907 3.724 2.192 2.192 0 0 0 2.85.17 2.218 2.218 0 0 0 .56-2.8 2.416 2.416 0 0 0-.205-.354c-.064-.102-.226-.455-.039.007-.09-.222-.165-.452-.27-.668-.035-.07-.259-.536-.073-.078a1.934 1.934 0 0 0-3.73 0ZM2005.648 1532.176c1.602-.35 3.282-.622 4.544-1.755a2.745 2.745 0 0 0 .57-3.008 2.706 2.706 0 0 0-2.517-1.693 6.39 6.39 0 0 0-2.757.976c-.572.354-1.107.784-1.655 1.175a2.359 2.359 0 0 0 1.815 4.305Z" class="color231f20 svgShape"></path><path d="M1847.166 1479.999c5.242 12.258 10.735 24.364 16.653 36.316 2.877 5.811 5.773 11.608 8.838 17.323 2.878 5.366 5.512 12.462 10.344 16.348 2.046 1.646 6.263.87 5.921-2.453-.624-6.064-4.455-11.6-7.241-16.92-3.157-6.026-6.378-12.014-9.575-18.018q-9.579-17.989-19.273-35.909c-2.055-3.814-7.28-.458-5.667 3.313ZM1843.353 1474.302a8.366 8.366 0 0 0 5.734-2.375 9.021 9.021 0 0 0 2.375-5.735 8.195 8.195 0 0 0-2.375-5.734 8.11 8.11 0 0 0-11.468 0 9.023 9.023 0 0 0-2.375 5.734 8.195 8.195 0 0 0 2.375 5.735 8.427 8.427 0 0 0 5.734 2.375ZM1824.302 1567.033a135.399 135.399 0 0 0 16.63-5.375c4.87-1.917 10.438-3.775 14.618-6.933 1.514-1.143.724-3.833-1.372-3.256-5.225 1.44-10.196 4.423-15.215 6.49-5.12 2.11-10.321 4.06-15.508 6a1.595 1.595 0 0 0 .847 3.074ZM1834.036 1580.041c9.686-2.473 19.246-6.387 28.516-10.122 2.507-1.01 1.544-5.054-1.146-4.158-9.624 3.203-19.584 6.744-28.477 11.653a1.444 1.444 0 0 0 1.107 2.627ZM1858.345 1588.676a74.93 74.93 0 0 0 12.627-5.355c2.695-1.42.327-5.17-2.34-4.004a72.059 72.059 0 0 0-11.587 6.275c-1.51 1.022-.623 3.682 1.3 3.084ZM2045.895 1253.758a104.806 104.806 0 0 0 56.308 26.417c6.384.882 14.841 2.13 20.803-.839 2.206-1.098 1.238-3.957-.616-4.712-5.605-2.28-13.106-1.54-19.114-2.377a111.7 111.7 0 0 1-53.31-22.56c-2.831-2.267-6.894 1.573-4.071 4.07ZM2137.164 1276.664c7.195.08 14.089-2.463 20.371-5.822a107.964 107.964 0 0 0 9.912-6.22c2.584-1.767 5.326-3.21 5.845-6.51.186-1.183-.289-2.718-1.681-2.96-5.61-.97-11.156 5.213-15.7 7.96a97.621 97.621 0 0 1-19.375 8.91c-2.468.84-2.13 4.611.628 4.642ZM2183.89 1249.466a13.663 13.663 0 0 0 3.574-2.65c1.26-1.31 2.59-2.876 1.66-4.754a1.84 1.84 0 0 0-1.633-.937 2.834 2.834 0 0 0-2.256 1.242 13.534 13.534 0 0 1-.925 1.296 9.934 9.934 0 0 1-2.589 2.093c-2.416 1.374-.28 4.97 2.17 3.71ZM2160.037 1440.686c.124-6.972 4.256-13.283 7.647-19.183 2.853-4.963 5.851-9.843 9.097-14.56a192.64 192.64 0 0 1 22.402-26.678 181.69 181.69 0 0 1 26.75-22.183c4.53-3.068 9.211-5.86 13.95-8.59 4.638-2.671 10.77-5.216 14.541-9.011 1.73-1.74.532-5.213-2.096-5.061-5.363.309-11.445 3.7-16.169 6.157a144.582 144.582 0 0 0-15.887 9.904 193.615 193.615 0 0 0-28.703 24.482 182.12 182.12 0 0 0-22.607 29.118c-6.509 10.33-14.63 22.922-13.91 35.605.181 3.183 4.928 3.231 4.985 0ZM2272.854 1340.581c5.388-.776 10.972-1.59 16.397-.7 3.955.65 7.694 3.333 11.692 2.497a2.45 2.45 0 0 0 1.68-2.96c-1.065-5.035-7.658-6.35-12.06-6.853-6.525-.745-13.03.572-19.4 1.884-4.084.842-2.255 6.7 1.69 6.132ZM1896.31 1310.52c1.324 8.338 2.51 16.706 4.102 24.998 1.443 7.52 1.976 16.531 5.62 23.348 1.49 2.788 5.163 1.177 5.444-1.475.812-7.644-2.202-16.44-3.669-23.912-1.62-8.247-3.644-16.415-5.53-24.604-.91-3.951-6.577-2.202-5.966 1.644ZM2108.564 1716.37c21.016 3.995 42.092 7.676 63.292 10.544 10.107 1.367 20.222 2.698 30.363 3.78 10.538 1.125 21.928 3.443 32.514 2.84 3.517-.2 4.627-5.539.868-6.414-9.75-2.27-20.464-2.159-30.429-3.18-10.492-1.075-20.988-2.124-31.47-3.296-21.415-2.394-42.827-4.838-64.178-7.755-2.236-.305-3.285 3.038-.96 3.48ZM2246.8 1734.568a131.41 131.41 0 0 0 8.242 1.463c2.75.393 5.108.906 7.339-1.026a2.83 2.83 0 0 0 0-3.95c-1.868-1.975-4.395-1.652-6.929-1.718q-3.951-.103-7.888-.424c-3.22-.263-3.936 4.994-.765 5.655Z" fill="#000000" class="color000 svgShape"></path><path fill="#ffffff" d="M2138.954 996.635a72.389 72.389 0 0 0 11.331 28.22 67.395 67.395 0 0 0 9.465 11.175c3.327 3.146 7.429 7.187 12.107 7.955 2.1.345 4.422-1.79 3.017-3.925-2.333-3.543-6.309-5.815-9.398-8.676a73.425 73.425 0 0 1-9.53-10.72 67.542 67.542 0 0 1-11.297-25.599c-.806-3.753-6.337-2.122-5.695 1.57ZM2185.7 1051.145a15.638 15.638 0 0 0 5.873 2.712c3.051.706 4.353-3.946 1.297-4.704a11.043 11.043 0 0 1-4.158-1.91 2.482 2.482 0 1 0-3.011 3.902Z" class="colorfff svgShape"></path><path d="M2057.168 1049.23c.322 5.333-1.946 10.47-.403 15.8a5.895 5.895 0 0 0 7.122 4.044c3.313-.91 4.507-4.017 4.043-7.122-.69-4.616-.682-9.466-2.475-13.844-.806-1.967-2.381-3.325-4.629-3.022a4.181 4.181 0 0 0-3.658 4.144ZM2116.64 1058.648a50.081 50.081 0 0 0-1.947 6.925c-.675 2.731-1.38 5.607-.6 8.364 1.358 4.789 7.599 5.276 10.196 1.332 1.607-2.44 1.67-5.768 1.845-8.635.163-2.67.455-5.426-.477-7.986-1.657-4.553-7.268-4.284-9.017 0ZM2078.925 1044.771c-2.704 10.381-4.485 20.988-6.46 31.527-1.268 6.77-2.638 15.299 4.293 19.42a1.73 1.73 0 0 0 2.087-2.705c-6.165-6.692-2.048-17.326-.585-25.21 1.396-7.522 2.79-15.023 3.673-22.625.202-1.736-2.581-2.043-3.008-.407ZM2061.666 1112.961c20.986 13.433 48.185 6.964 68.04-5.31 2.511-1.551.195-5.54-2.319-3.966-19.805 12.407-42.364 16.186-64.176 6.632a1.532 1.532 0 0 0-1.545 2.644ZM2060.938 1024.77c3.263-.072 6.54-.04 9.798.167 2.882.183 6.084 1.162 8.8.058a1.64 1.64 0 0 0 .385-2.948c-2.38-1.752-5.625-1.451-8.486-1.499a79.596 79.596 0 0 0-10.497.558c-2.278.263-2.416 3.718 0 3.664ZM2120.66 1029.86a64.308 64.308 0 0 1 6.524 1.561c2.018.58 3.967 1.696 6.09 1.657a1.826 1.826 0 0 0 1.277-3.08c-1.6-1.656-4.068-2.134-6.249-2.634a32.58 32.58 0 0 0-7.206-.727c-1.793-.008-2.303 2.891-.436 3.222ZM2041.779 1068.074a10.638 10.638 0 0 0 .37 1.669 1.917 1.917 0 0 0 2.083 1.36 1.892 1.892 0 0 0 1.647-1.865 13.948 13.948 0 0 0-.304-2.211 1.978 1.978 0 0 0-2.421-1.375 2.022 2.022 0 0 0-1.375 2.422ZM2157.96 1082.876a4.883 4.883 0 0 0-2.915 2.284 5.721 5.721 0 0 0-1.008 3.438 2.562 2.562 0 0 0 5.025.68 8.796 8.796 0 0 0 .288-.956c.04-.163.09-.321.133-.483.118-.43-.05.043.072-.189.377-.723.687-1.429.996-2.184.62-1.518-1.18-3.01-2.59-2.59ZM2162.413 1086.003c-.316.38-.636.757-.95 1.139a3.314 3.314 0 0 0-.75 1.206 2.749 2.749 0 0 0 .032 1.272 1.693 1.693 0 0 0 1.222 1.222 2.749 2.749 0 0 0 1.273.032 3.314 3.314 0 0 0 1.206-.75c.382-.313.759-.633 1.138-.95a2.242 2.242 0 1 0-3.17-3.17ZM2212.322 1076.734a3.988 3.988 0 0 0-5.463.892 6.83 6.83 0 0 0-.942 6.47 6.628 6.628 0 0 0 11.505 1.674c2.841-3.9 2.358-10.723-2.684-12.563-5.506-2.01-8.793 3.54-8.865 8.301a8.058 8.058 0 0 0 2.312 6.198 6.486 6.486 0 0 0 8.124.249c4.439-3.105 4.699-11.214.013-14.214a6.825 6.825 0 0 0-6.802-.248c-2.823 1.555-3.285 4.908-3.1 7.82.337 5.34 4.41 11.595 10.64 9.745 5.817-1.727 7.117-9.48 4.232-14.186-1.686-2.748-5.237-4.344-8.328-3.113-2.934 1.168-4.956 5.473-2.191 7.891a3.242 3.242 0 0 0 3.784.489 3.84 3.84 0 0 0 1-.709q.69-.611-.012-.224c-1.394-.438-.776-.011-.69.69.05.399-.294 1.415-.199 1.723.043.139.25-.272.305-.172q.532.078.1-.07a1.09 1.09 0 0 1-.337-.367 6.102 6.102 0 0 1-.45-2.05q-.023-.706.002-1.412a1.825 1.825 0 0 1-1.9.972c-1.204.092.023-.746-.537.198.004-.007-.278 1.11-.294 1.061q3.005.027 2.045.548a.507.507 0 0 1-.105-.552 11.812 11.812 0 0 0 .13-1.693c-.007-.557.37-.885-.543-.43-.685.34-.298-.204-.352.969-.015.323-.123 1.508-.477 1.679-.436.21-.781-.112-1.033-.435a1.787 1.787 0 0 1-.304-.87q.22-.635-.248-.313c2.465.942 3.473-2.616 1.664-3.948ZM1528.994 1767.221c-4.861 41.862-24.734 81.806-53.376 112.533-30.78 33.02-70.88 53.634-115.227 61.392-98.81 17.287-196.449-20.667-294.383-27.488-27.067-1.885-54.245-1.505-81.074 2.802-25.703 4.127-52.755 12.191-74.114 27.498-4.37 3.132-1.877 11.92 4.01 9.51 22.658-9.28 45.056-17.263 69.29-21.358 23.593-3.987 47.79-4.574 71.653-3.445 50.19 2.375 99.083 13.48 148.517 21.525 50.296 8.186 102.343 14.294 152.987 5.48 44.89-7.813 86.782-28.199 118.51-61.188a210.973 210.973 0 0 0 58.082-127.26c.283-3.152-4.52-3.062-4.875 0ZM2410.18 1733.351c69.225-26.434 145.369-39.398 219.487-36.76 37.603 1.339 74.55 4.709 111.417 12.521 35.18 7.455 70.481 17.626 103.117 32.905 32.517 15.224 61.013 36.142 83.37 64.4 21.826 27.584 38.33 60.15 50.002 93.232 22.653 64.202 28.1 138.304-.22 201.77-24.412 54.707-69.875 97.314-127.054 115.7-7.035 2.261-14.227 4.252-21.399 6.033-6.753 1.676-5.355 12.287 1.645 12.154 31.555-.6 61.996-13.735 87.443-31.852a227.964 227.964 0 0 0 63.907-69.913c36.967-62.624 40.4-138.75 22.058-207.941a365.96 365.96 0 0 0-44.897-102.173c-20.024-31.45-45.555-58.504-77.533-77.945-31.896-19.391-67.847-31.72-103.826-41.042a610.483 610.483 0 0 0-113.971-17.984c-77.385-4.96-154.775 6.762-228.219 31.06q-13.63 4.509-27.023 9.688c-3.785 1.458-2.151 7.616 1.695 6.147Z" fill="#000000" class="color000 svgShape"></path><path fill="#00AEEF" stroke="#000000" stroke-miterlimit="10" stroke-width="4" d="M1181.384 2341.833c9.164-15.11 10.253-30.37-2.232-44.417-29.84-33.57-113.97 7.952-173.685 44.417ZM981.934 2341.833c56.75-63.563 146.642-180.094 88.833-225.058-58.872-45.788-177.742 124.752-238.833 222.3 4.18-76.199-1.748-177.528-66.662-154.448-67.364 23.953-11.668 96.53 28.263 157.206ZM3102.108 2341.833c8.078-13.319 9.038-26.771-1.967-39.153-26.304-29.592-100.465 7.01-153.104 39.153ZM2926.293 2341.833c50.025-56.03 129.264-158.753 78.306-198.389-51.896-40.362-156.68 109.969-210.532 195.958 3.684-67.17-1.54-156.491-58.763-136.146-59.38 21.114-10.285 85.091 24.914 138.577Z" class="colorfe6d3e svgShape colorStroke000 svgStroke"></path><path d="M1063.747 2117.473c-12.21 13.108-22.466 28.573-33.005 43.034q-16.333 22.41-32.348 45.05c-21.241 29.853-42.188 59.918-64.057 89.318q-19.053 25.614-39.165 50.413c-2.976 3.648 2.217 8.897 5.215 5.215 46.69-57.332 87.782-118.81 130.489-179.084 5.97-8.426 11.995-16.813 18.002-25.213 6.155-8.608 12.908-16.953 18.452-25.969 1.345-2.187-1.803-4.675-3.583-2.764ZM2998.168 2189.865l-16.974 10.61c-5.128 3.205-10.892 6.099-15.428 10.112-1.167 1.033.32 2.512 1.533 1.988 5.717-2.472 10.98-6.648 16.213-10.024l16.028-10.339c1.464-.944.12-3.28-1.372-2.347ZM2989.63 2210.343c-6.28 4.213-12.29 8.806-18.614 12.963-3.005 1.976-6.314 3.711-9.202 5.845-1.106.817-2.114 1.35-1.993 2.892a1.81 1.81 0 0 0 2.691 1.544l.23-.13a1.703 1.703 0 0 0 .34-2.639l-.106-.122a1.604 1.604 0 0 0-2.663.704l-.038.16 2.066-1.174-.256-.067 1.25 2.2c-.443 1.152 2.216-1.118 2.749-1.463q1.525-.99 3.038-2 4.164-2.77 8.243-5.666a169.86 169.86 0 0 0 14.055-10.728c1.249-1.098-.393-3.256-1.79-2.319ZM2980.347 2234.667c-4.092 1.844-7.619 5.334-11.142 8.06-4.638 3.588-9.499 7.02-13.85 10.95-1.248 1.129.4 3.324 1.818 2.357 8.518-5.81 15.72-13.71 24.475-19.141a1.29 1.29 0 0 0-1.3-2.226ZM1632.36 1167.341q-5.748 12.288-11.194 24.713c-1.618 3.7-3.179 7.42-4.712 11.156-1.503 3.662-3.451 7.272-3.685 11.262a1.065 1.065 0 0 0 1.8.746c2.292-2.69 3.317-6.007 4.664-9.245 1.615-3.88 3.258-7.748 4.876-11.627q5.326-12.774 11.004-25.396c.828-1.848-1.878-3.477-2.753-1.609ZM1644.69 1180.084c-2.311 5.81-4.573 11.648-7.05 17.39-2.088 4.84-4.856 9.669-6.147 14.793a1.484 1.484 0 0 0 2.7 1.138c3.367-4.44 5.307-10.116 7.413-15.252 2.32-5.657 4.443-11.355 6.247-17.197.637-2.061-2.403-2.786-3.164-.872Z" fill="#000000" class="color000 svgShape"></path><path fill="#00AEEF" d="M2586.75 1791.283c10.754-.28 20.376 3.604 30.108 7.773 4.65 1.991 9.276 4.05 13.845 6.221 4.761 2.264 9.714 5.636 14.98 6.468 3.85.609 6.854-3.595 3.922-6.738-4.051-4.342-10.368-6.568-15.67-9.006q-8.336-3.833-16.912-7.093c-10.025-3.804-21.455-8.275-31.804-3.274-2.745 1.327-1.367 5.724 1.53 5.65ZM2593.78 1775.728a86.19 86.19 0 0 1 23.684 4.456 74.397 74.397 0 0 1 11.218 4.854c3.164 1.703 5.936 4.034 9.672 3.804 2.207-.135 4.421-2.273 3.556-4.667-2.625-7.27-14.384-10.628-21.2-12.599a70.551 70.551 0 0 0-26.93-2.41c-4.148.407-4.29 6.367 0 6.562ZM1504.935 2079.209c15.516 1.65 29.852-8.171 41.362-17.46a119.356 119.356 0 0 0 16.593-16.157c4.165-4.973 10.449-11.908 10.138-18.747a2.348 2.348 0 0 0-3.48-1.997c-5.454 2.409-8.997 8.998-12.772 13.463a141.197 141.197 0 0 1-14.404 14.845c-9.963 8.78-23.544 19.852-37.437 19.99-3.983.04-3.801 5.659 0 6.063ZM1537.611 2093.503a68.366 68.366 0 0 0 26.824-16.253 73.009 73.009 0 0 0 10.018-12.416c2.583-4.052 5.768-9.149 5.468-14.124a3.197 3.197 0 0 0-5.388-2.232c-3.203 3.03-4.787 7.678-7.082 11.4a68.223 68.223 0 0 1-8.861 11.527 75.352 75.352 0 0 1-23.315 16.558c-3.122 1.395-.904 6.641 2.336 5.54Z" class="colorddd svgShape"></path></svg></g></svg>